<svg width="512" height="96" viewBox="0 0 512 96" fill="none" xmlns="http://www.w3.org/2000/svg">
  <title>FOREM-idable</title>
  <desc>Horizontal FOREM-idable logo with modular F monogram and wordmark.</desc>
  <rect x="8" y="10" width="22" height="76" rx="8" fill="#233A63"/>
  <rect x="34" y="10" width="46" height="18" rx="8" fill="#233A63"/>
  <rect x="34" y="39" width="35" height="18" rx="8" fill="#5477BE"/>
  <rect x="34" y="68" width="24" height="18" rx="8" fill="#A7B6D4"/>
  <path
    d="M112.759 66V29.792H137.143V36.464H120.535V44.24H135.143V50.8H120.535V66H112.759Z"
    fill="#233A63"
  />
  <path
    d="M157.43 66.672C146.486 66.672 139.478 59.056 139.478 47.896C139.478 36.736 146.486 29.12 157.43 29.12C168.374 29.12 175.382 36.736 175.382 47.896C175.382 59.056 168.374 66.672 157.43 66.672ZM157.43 59.72C163.518 59.72 167.382 55.072 167.382 47.896C167.382 40.72 163.518 36.072 157.43 36.072C151.342 36.072 147.478 40.72 147.478 47.896C147.478 55.072 151.342 59.72 157.43 59.72Z"
    fill="#233A63"
  />
  <path
    d="M180.29 66V29.792H197.066C205.178 29.792 209.602 34.44 209.602 40.864C209.602 45.68 206.642 49.88 201.994 51.224L210.162 66H201.266L194.162 52.344H188.066V66H180.29ZM188.066 46.016H195.946C199.698 46.016 201.658 43.84 201.658 40.864C201.658 37.776 199.698 36.128 195.946 36.128H188.066V46.016Z"
    fill="#233A63"
  />
  <path
    d="M214.244 66V29.792H239.58V36.464H222.02V44.128H238.236V50.688H222.02V59.328H239.58V66H214.244Z"
    fill="#233A63"
  />
  <path
    d="M244.4 66V29.792H257.944C269.048 29.792 275.976 36.632 275.976 47.896C275.976 59.16 269.048 66 257.944 66H244.4ZM252.176 59.16H257.944C264.288 59.16 267.976 54.848 267.976 47.896C267.976 40.944 264.288 36.632 257.944 36.632H252.176V59.16Z"
    fill="#233A63"
  />
  <path d="M282.713 66V29.792H290.489V66H282.713Z" fill="#5477BE"/>
  <path
    d="M296.79 66V39.872H304.286V43.792C305.742 40.944 308.926 39.2 313.014 39.2C319.102 39.2 323.134 43.12 323.134 49.656V66H315.638V51.784C315.638 47.92 313.51 45.984 310.214 45.984C306.574 45.984 304.286 48.384 304.286 52.416V66H296.79Z"
    fill="#5477BE"
  />
  <path
    d="M341.418 66.672C333.53 66.672 327.722 61.464 327.722 52.92C327.722 44.432 333.53 39.2 341.418 39.2C347.674 39.2 352.154 42.272 353.946 47.48L347.218 49.936C346.322 47.256 344.194 45.76 341.418 45.76C337.386 45.76 335.274 48.888 335.274 52.92C335.274 57.008 337.386 60.112 341.418 60.112C344.194 60.112 346.322 58.616 347.218 55.936L353.946 58.392C352.154 63.6 347.674 66.672 341.418 66.672Z"
    fill="#5477BE"
  />
  <path
    d="M358.139 66V29.792H365.635V43.792C367.091 40.944 370.275 39.2 374.363 39.2C380.451 39.2 384.483 43.12 384.483 49.656V66H376.987V51.784C376.987 47.92 374.859 45.984 371.563 45.984C367.923 45.984 365.635 48.384 365.635 52.416V66H358.139Z"
    fill="#5477BE"
  />
  <path
    d="M401.764 66.672C393.54 66.672 388.108 61.688 388.108 52.976C388.108 44.6 393.316 39.2 401.484 39.2C409.652 39.2 414.3 44.712 414.3 51.664V54.12H395.324C395.828 58 398.396 60.336 402.212 60.336C405.34 60.336 407.58 58.84 408.532 56.552L414.02 58.896C412.172 63.656 407.524 66.672 401.764 66.672ZM395.492 49.32H407.188C406.74 46.248 404.668 44.432 401.484 44.432C398.188 44.432 396.116 46.304 395.492 49.32Z"
    fill="#5477BE"
  />
  <path
    d="M419.41 66V39.872H426.906V44.184C428.194 41.112 430.986 39.2 434.738 39.2H436.586V46.208H434.122C429.922 46.208 426.906 48.384 426.906 53.144V66H419.41Z"
    fill="#5477BE"
  />
  <path
    d="M449.847 66.672C443.143 66.672 439.111 63.768 437.671 59.624L443.703 57.336C444.543 59.576 446.615 60.784 449.847 60.784C452.583 60.784 454.319 59.832 454.319 58.168C454.319 56.728 453.311 55.944 450.847 55.44L446.207 54.544C440.727 53.48 438.103 50.968 438.103 46.472C438.103 41.784 442.359 39.2 449.175 39.2C455.487 39.2 459.239 41.784 460.679 45.76L454.703 48.048C453.863 46.024 451.959 45.032 449.175 45.032C446.719 45.032 445.111 45.928 445.111 47.424C445.111 48.696 446.007 49.424 448.135 49.872L452.639 50.768C458.735 51.944 461.551 54.4 461.551 58.896C461.551 63.992 457.015 66.672 449.847 66.672Z"
    fill="#5477BE"
  />
  <path
    d="M470.658 35.12C468.146 35.12 466.186 33.272 466.186 30.928C466.186 28.528 468.146 26.68 470.658 26.68C473.114 26.68 475.13 28.528 475.13 30.928C475.13 33.272 473.114 35.12 470.658 35.12ZM466.906 66V39.872H474.402V66H466.906Z"
    fill="#5477BE"
  />
  <path
    d="M491.861 66.392C486.661 66.392 483.981 63.656 483.981 58.624V45.984H478.941V39.872H483.981V32.992H491.421V39.872H499.245V45.984H491.421V57.112C491.421 59.184 492.373 60.168 494.333 60.168H499.245V66.392H491.861Z"
    fill="#5477BE"
  />
</svg>
